<svg xmlns="http://www.w3.org/2000/svg" height="1024" preserveAspectRatio="none" style="display: block;" version="1.1" viewBox="0 0 2048 2048" width="1024">
<path d="M 0 0 L 2048 0 L 2048 151.226 L 2048 171.448 L 2048 197.72 L 2048 221.212 L 2048 351.733 L 2048 376.751 L 2048 397.33 L 2048 417.676 L 2048 1127.6 L 2048 1145.36 L 2048 1158.42 L 2048 1176.25 L 2048 1285.1 L 2048 1294.93 L 2048 1303.95 L 2048 1310.82 L 2048 1321.46 L 2048 1371.8 L 2048 1409.1 L 2048 1447.09 L 2048 1478.93 L 2048 1697.84 L 2048 1723.39 L 2048 1732.95 L 2048 1870.24 L 2048 2048 L 0 2048 L 0 1864.66 L 0 1731.4 L 0 1720.99 L 0 1698.73 L 0 1483.3 L 0 1447.66 L 0 1410.09 L 0 1372.49 L 0 1321.17 L 0 1312.32 L 0 1303.19 L 0 1289.79 L 0 1281.32 L 0 1176.42 L 0 1157.53 L 0 1145.99 L 0 1128.24 L 0 417.375 L 0 396.003 L 0 377.461 L 0 351.265 L 0 223.051 L 0 198.793 L 0 170.934 L 0 151.496 L 0 0 z" fill="rgb(13,27,61)" transform="translate(0,0)"></path>
<path d="M 1663.94 876.376 C 1676.36 852.223 1688.23 828.122 1694.21 801.618 C 1694.98 798.191 1730.11 766.819 1734.55 761.8 C 1768.34 723.613 1806.5 689.548 1838.93 650.13 C 1844.19 643.735 1849.54 640.252 1854.97 634.518 C 1861.68 624.779 1864.94 619.495 1874.5 612.253 L 1875.66 611.388 C 1876.41 605.296 1882.49 602.665 1887.01 598.024 C 1909.59 574.833 1930.82 550.079 1953.22 526.751 C 1958.09 524.161 1960.42 519.898 1963.44 515.052 C 1979.34 489.59 2003.06 469.124 2022.95 446.914 C 2031.74 437.103 2041.51 428.791 2048 417.676 L 2048 1127.6 C 1985.49 1155.79 1922.03 1189.42 1859.73 1219.22 C 1812.99 1241.08 1766.5 1263.49 1720.28 1286.43 C 1700.99 1295.9 1678.58 1305.88 1660.06 1316.1 C 1661.24 1324.56 1661.08 1327.87 1660.3 1336.18 C 1738.38 1334.74 1818.84 1338.19 1895.69 1352.41 C 1897.47 1356.5 1900.84 1364.07 1897.51 1367.56 C 1889.78 1368.34 1875.11 1367.84 1866.79 1367.77 L 1810.61 1367.25 C 1804.86 1363.3 1813.04 1350.26 1813.03 1347.05 C 1810.28 1345.47 1808.12 1346.08 1804.87 1346.38 C 1798.23 1350.64 1801.59 1352.53 1800.23 1360.2 C 1799.93 1361.88 1797.33 1366.34 1796.36 1368.05 C 1757.49 1369.68 1710.84 1368.22 1671.34 1368.13 L 1433.09 1368.19 C 1432.27 1362.05 1432.06 1355.56 1431.77 1349.36 C 1429.77 1305.79 1430.36 1261.99 1429.94 1218.43 L 1428.83 1106.48 C 1428.39 1082.7 1426.87 1056.88 1427.24 1033.3 C 1445.95 1028.47 1475.35 1020.08 1493.6 1017.7 C 1505.93 1005.54 1504.61 992.37 1513.75 981.945 C 1538.73 953.462 1564.23 921.338 1590.37 894.106 C 1598.65 892.336 1610.6 888.172 1618.53 887.283 C 1636.29 885.29 1647.22 882.658 1663.94 876.376 z" fill="rgb(115,52,103)" transform="translate(0,0)"></path>
<path d="M 0 417.375 C 20.3147 445.741 46.4411 468.881 70.5838 493.987 C 79.7217 503.49 86.8608 517.816 95.2905 526.986 L 266.354 712.78 L 323.946 774.063 C 333.736 784.617 347.135 798.968 355.333 810.288 C 362.101 819.633 364.045 841.142 367.169 852.116 C 368.165 855.615 370.102 853.262 371.2 855.24 C 374.637 861.428 379.897 873.05 381.136 879.388 C 402.577 883.341 424.09 886.89 445.665 890.035 C 452.057 900.324 462.73 910.697 470.937 919.738 C 489.277 939.94 510.382 960.642 526.466 982.571 C 532.469 990.755 541.612 1012.76 546.954 1022.95 C 568.095 1029.59 597.958 1030.8 620.693 1038.08 C 621.616 1053.52 620.538 1076.33 620.225 1092.16 L 618.135 1190.59 C 617.584 1229.5 616.7 1268.41 615.482 1307.31 C 615.004 1326.79 615.454 1348.9 613.746 1368.01 C 559.445 1367.2 504.621 1368 450.224 1367.68 C 383.292 1367.28 313.886 1365.79 247.095 1368.09 C 245.528 1355.14 248.731 1345.64 234.376 1343.01 L 232.306 1341.54 C 251.254 1338.98 274.518 1338.38 293.845 1336.64 C 313.273 1334.9 333.616 1334.24 353.144 1332.63 C 360.638 1332.01 369.504 1339.09 377.181 1337.75 C 380.374 1337.13 383.256 1331.78 384.68 1329.12 C 389.563 1320.02 385.285 1312.64 376.809 1308.24 C 349.601 1294.12 321.589 1281.52 293.84 1268.5 L 177.854 1213.01 L 35.9641 1146.33 C 23.9726 1140.77 11.3928 1133.07 0 1128.24 L 0 417.375 z" fill="rgb(115,52,103)" transform="translate(0,0)"></path>
<path d="M 0 0 L 2048 0 L 2048 151.226 L 1234.23 148.563 L 804.444 154.419 C 787.208 154.505 769.469 153.051 751.882 152.974 L 490.522 151.192 L 5.5184 152.37 C 2.95298 152.391 2.46139 152.219 0 151.496 L 0 0 z" fill="rgb(115,52,103)" transform="translate(0,0)"></path>
<path d="M 1436.62 1698.49 L 1907.66 1697.72 C 1907.39 1702.16 1905.99 1713.77 1909.32 1716.62 C 1924.28 1729.5 1955.88 1720.92 1974.18 1722.63 C 1983.97 1723.54 1990.92 1724.83 1999.07 1725.99 L 2048 1732.95 L 2048 1870.24 C 2036.64 1865.12 1997.81 1854.32 1984.16 1850.09 L 1844.92 1807.09 C 1834.76 1803.95 1803.23 1790.44 1796.15 1790.4 C 1709.11 1789.96 1621.8 1790.57 1534.75 1790.34 C 1503.21 1790.26 1469.12 1792.68 1438.13 1790.13 L 1436.62 1698.49 z" fill="rgb(115,52,103)" transform="translate(0,0)"></path>
<path d="M 137.024 1697.12 C 234.586 1698.14 332.154 1698.47 429.721 1698.12 C 451.182 1698.19 472.307 1699.48 493.63 1699.71 C 530.751 1700.12 571.112 1697.9 608.112 1698.93 C 608.079 1712.75 610.729 1781.45 608.25 1789.98 C 588.662 1791.48 555.387 1789.64 534.43 1789.95 C 481.611 1790.73 428.018 1788.49 375.196 1790.12 C 358.792 1790.62 333.887 1788.22 319.378 1790.02 C 296.514 1789.9 273.65 1789.93 250.787 1790.1 C 247.749 1790 240.402 1789.63 237.824 1790.7 C 203.699 1804.9 169.072 1815.2 133.671 1825.73 L 52.0858 1849.21 C 37.5177 1853.25 13.74 1859.06 0 1864.66 L 0 1731.4 C 24.4265 1728.43 49.0358 1724.99 73.3994 1722.21 C 95.2073 1719.72 116.15 1725.74 138.095 1716.92 C 137.736 1710.42 137.249 1703.61 137.024 1697.12 z" fill="rgb(115,52,103)" transform="translate(0,0)"></path>
<path d="M 1028.3 166.556 C 1096.58 165.468 1165.12 162.026 1233.34 164.182 C 1237.79 164.323 1239.28 160.344 1247.09 164.546 C 1247.73 164.891 1256.31 164.853 1257.52 164.858 L 1760.62 167.05 L 1941 168.184 C 1968.9 168.119 1994.38 169.85 2023.03 167.779 C 2024.55 169.529 2023.71 168.843 2025.47 169.926 C 2027.1 167.628 2026.02 168.24 2028.4 167.5 L 2030.03 169.434 C 2032.81 170.381 2037.7 168.641 2041.12 167.881 C 2043.94 170.48 2044.26 170.557 2048 171.448 L 2048 197.72 C 2033.59 200.561 1987.67 198.381 1970.05 199.026 C 1940.5 200.108 1909.76 201.35 1880.2 202.048 C 1791.21 204.337 1702.19 204.747 1613.18 203.276 C 1598.74 203.149 1584.56 202.165 1569.85 202.107 L 1259.49 203.148 L 1114 203.082 C 1102.64 203.162 1091.28 202.891 1079.94 202.272 C 1071.39 201.751 1062.89 200.961 1054.3 200.846 C 1049.29 200.779 1032.92 206.516 1029.75 204.208 C 1028.22 192.28 1029.56 180.048 1028.43 167.806 L 1028.3 166.556 z" fill="rgb(33,80,131)" transform="translate(0,0)"></path>
<path d="M 0 170.934 C 114.369 176.337 231.424 167.201 346.003 167.518 C 362.749 167.564 379.634 168.666 396.424 168.875 L 601.065 172.361 C 616.5 172.57 631.757 172.392 647.183 171.71 C 691.743 169.742 736.388 171.032 780.982 170.903 C 830.634 171.249 880.289 170.868 929.931 169.761 C 949.498 169.19 997.457 165.403 1014.98 166.869 C 1016.03 177.103 1015.05 192.334 1015.07 203.186 C 1003.89 201.967 988.531 202.521 977.006 202.605 L 914.884 203.157 C 851.117 203.26 787.352 203.897 723.595 205.066 C 705.461 205.279 687.539 205.467 669.427 206.732 C 667.44 206.87 660.143 204.965 655.825 204.884 L 567.532 203.84 L 349.885 205.221 C 329.141 205.405 308.595 206.101 287.786 206.332 C 252.225 206.728 218.423 204.453 183 203.084 L 91.147 200.258 C 60.6121 199.224 30.2731 199.948 0 198.793 L 0 170.934 z" fill="rgb(33,80,131)" transform="translate(0,0)"></path>
<path d="M 2048 1145.36 L 2048 1158.42 C 2020.97 1170.66 1994.96 1183.71 1968.19 1196.17 C 1906.07 1224.42 1844.21 1253.26 1782.64 1282.7 C 1765.94 1290.59 1749.13 1298.23 1732.21 1305.63 C 1720.07 1311.04 1699.25 1319.62 1689.21 1327.61 L 1666.74 1328.45 C 1690.4 1314.85 1728 1298.12 1753.1 1286.27 L 1877.6 1227.02 L 1996.51 1169.56 C 2012.81 1161.76 2031.48 1152.23 2048 1145.36 z" fill="rgb(198,161,167)" transform="translate(0,0)"></path>
<path d="M 0 1145.99 C 22.4475 1158.05 45.1098 1167.91 68.1146 1178.74 C 167.837 1225.69 268.224 1271.3 367.868 1318.44 C 370.473 1319.68 372.29 1321.25 373.384 1323.92 L 373.005 1326.65 C 364.361 1328.48 305.932 1298.4 293.798 1292.74 C 256.373 1275.36 218.805 1258.28 181.097 1241.53 C 140.217 1223.29 99.4756 1204.75 58.8761 1185.9 C 41.6181 1177.83 16.5897 1166.67 0 1157.53 L 0 1145.99 z" fill="rgb(198,161,167)" transform="translate(0,0)"></path>
<path d="M 139.277 1363.16 C 141.82 1360.68 144.043 1358.34 146.466 1355.74 C 146.446 1353.59 146.052 1352.22 145.438 1350.15 L 146.47 1348.71 C 151.959 1346.99 172.021 1346.14 179.178 1345.64 C 196.901 1344.45 214.611 1343.08 232.306 1341.54 L 234.376 1343.01 C 233.79 1344.14 233.205 1345.26 232.62 1346.39 C 233.24 1349.44 237.43 1366.81 230.926 1367.14 C 219.606 1367.71 147.139 1369.18 142.424 1367.36 L 139.099 1363.49 L 139.277 1363.16 z" fill="rgb(150,109,144)" transform="translate(0,0)"></path>
<path d="M 1966.93 1711.13 C 1966.69 1706.75 1965.96 1702.05 1968.31 1698.6 C 1976.41 1697.63 1990.39 1698.06 1998.93 1698.07 C 2015.29 1698.11 2031.64 1698.04 2048 1697.84 L 2048 1723.39 C 2020.88 1718.71 1993.49 1715.9 1966.93 1711.13 z" fill="rgb(115,52,103)" transform="translate(0,0)"></path>
<path d="M 0 1698.73 C 27.6327 1698.28 55.2712 1698.3 82.903 1698.81 L 82.0346 1710.86 C 55.7987 1714.3 26.0568 1719.38 0 1720.99 L 0 1698.73 z" fill="rgb(115,52,103)" transform="translate(0,0)"></path>
<path d="M 979.145 1085.46 C 1028.44 1083.8 1081.25 1086.12 1130.69 1087.94 C 1148.3 1088.59 1169.53 1089.23 1186.73 1091.68 C 1188.17 1109.79 1186.86 1139.38 1187.28 1158.64 C 1188.6 1228.07 1189.15 1297.51 1188.93 1366.95 L 1076.25 1367.34 C 1056.42 1366.67 1033.51 1367.43 1013.38 1367.37 L 859.652 1366.87 C 858.817 1306.99 861.267 1245.55 861.131 1185.46 C 861.07 1158.86 859.895 1117.31 861.985 1091.62 C 879.065 1090.65 896.455 1088.64 913.493 1087.93 C 935.342 1087.01 957.281 1086.3 979.145 1085.46 z" fill="rgb(115,52,103)" transform="translate(0,0)"></path>
<path d="M 482.759 1521.24 C 525.533 1522.99 568.626 1522.01 611.439 1521.93 C 610.842 1536.68 610.341 1646.57 607.71 1650.91 C 584.447 1650.43 561.18 1650.2 537.912 1650.22 C 525.066 1650.34 491.71 1651.79 480.742 1649.48 C 479.796 1637.49 481.158 1614.04 481.446 1601.27 L 482.759 1521.24 z" fill="rgb(42,93,141)" transform="translate(0,0)"></path>
<path d="M 837.2 914.768 C 851.813 907.559 1043.27 907.817 1069.9 908.137 C 1075.34 908.772 1080.23 909.005 1085.4 910.616 C 1097.8 914.485 1107.98 911.127 1120.04 909.864 C 1132.13 910.1 1212.4 913.041 1220.75 915.986 L 1221.01 918.653 C 1220.89 918.404 1220.77 918.154 1220.65 917.905 C 1218.68 918.335 1217.74 918.382 1215.73 918.214 C 1223.81 924.162 1220.67 918.853 1228.28 921.345 L 1227.92 922.209 C 1212.11 921.712 1196.16 920.162 1180.28 919.458 C 1139.19 917.924 1098.07 916.814 1056.96 916.127 C 1018.81 916.103 980.675 916.658 942.55 917.791 C 935.461 917.983 927.489 916.962 920.654 917.319 C 897.323 918.535 872.598 920.144 849.293 920.787 C 815.154 923.467 781.113 927.272 747.226 932.196 C 743.016 932.804 733.443 934.814 729.972 933.773 C 725.301 958.06 726.734 1015.59 726.607 1042.63 L 724.569 1183.41 C 723.103 1320.59 717.842 1458.62 715.968 1595.94 L 710.761 1812.45 C 710.44 1830.87 707.32 1874.04 709.215 1889.89 L 707.73 1892.11 C 703.35 1897.22 700.427 1900.25 695.542 1904.89 C 698.534 1870.16 698.058 1836.05 699.068 1801.32 C 700.929 1737.34 700.588 1673.43 702.939 1609.48 C 703.187 1602.74 702.733 1596.34 703.941 1589.68 C 702.829 1562.23 704.52 1533.77 704.81 1506.32 C 705.41 1433.61 707.152 1360.92 710.034 1288.28 C 711.034 1255.69 710.546 1223.09 711.148 1190.53 C 713.248 1103.4 714.19 1016.25 713.973 929.102 C 738.158 920.743 808.33 916.929 837.2 914.768 z" fill="rgb(115,52,103)" transform="translate(0,0)"></path>
<path d="M 1499.25 1521.53 C 1504.89 1522.04 1512.48 1521.48 1518.5 1521.48 L 1560.84 1521.61 C 1561.5 1543.78 1563.82 1566.69 1564.59 1588.81 C 1565.26 1607.82 1565.13 1626.75 1565.84 1645.92 C 1545.65 1647.16 1523.26 1646.96 1502.76 1647.45 C 1479.57 1647.9 1458.35 1648.19 1435.17 1649.6 C 1433.8 1609.63 1434.6 1561.69 1434.93 1521.74 C 1456.02 1521.76 1478.3 1522.5 1499.25 1521.53 z" fill="rgb(33,80,131)" transform="translate(0,0)"></path>
<path d="M 1310.99 1057.29 L 1311.55 1057.59 C 1313.29 1059.83 1313.04 1121.55 1313.14 1129.97 L 1316.47 1306.29 C 1317 1326.99 1316.46 1348.46 1317.53 1368.94 C 1302.62 1368.23 1287.68 1367.93 1272.75 1368.02 L 1271 1367.8 C 1268.02 1364.26 1269.04 1294.94 1269.02 1285.22 C 1269.26 1237.68 1268.75 1190.15 1267.47 1142.62 C 1267.23 1133.12 1267.14 1100.38 1264.98 1093.85 C 1268.56 1085.07 1271.35 1076.87 1274.4 1067.92 C 1287.09 1063 1297.92 1060.25 1310.99 1057.29 z" fill="rgb(115,52,103)" transform="translate(0,0)"></path>
<path d="M 1651.58 1521.45 C 1673.02 1520.94 1694.06 1520.93 1715.5 1521.17 C 1729.35 1521.32 1742.67 1520.19 1756.7 1521.21 C 1757.32 1527.93 1762.51 1644.58 1762.3 1645.35 L 1759.7 1645.75 C 1724.78 1645.59 1687.53 1646.66 1653.18 1645.97 C 1652.89 1631.62 1649.26 1526.44 1651.58 1521.45 z" fill="rgb(33,80,131)" transform="translate(0,0)"></path>
<path d="M 361.229 1524.55 C 370.718 1523.55 390.167 1523.78 400.263 1523.6 C 400.561 1529.1 400.578 1534.7 400.382 1540.21 C 399.236 1572.41 400.536 1605.77 398.696 1637.88 C 394.362 1642.95 388.798 1637.76 383.785 1638.56 C 375.185 1639.93 367.26 1641.96 358.498 1642.84 C 347.452 1638.69 354.857 1625.94 327.996 1628.01 L 326.779 1628.12 C 313.128 1631.2 313.972 1634.51 302.782 1640.25 C 300.421 1641.46 298.354 1640.14 296.5 1639.16 C 293.751 1635.83 293.661 1632.04 292.9 1627.63 C 288.915 1624.93 287.963 1624.64 283.307 1623.17 L 282.067 1622.79 C 277.734 1617.71 279.983 1593.84 280.202 1586.08 C 280.813 1565.95 281.286 1545.81 281.621 1525.67 C 305.243 1523.73 336.604 1525.67 361.229 1524.55 z" fill="rgb(42,93,141)" transform="translate(0,0)"></path>
<path d="M 1321.93 970.97 L 1324.04 970.48 L 1324.19 971.447 C 1328.67 974.631 1329.3 974.737 1334.81 974.488 L 1343.73 1627.86 L 1346.05 1837.96 C 1346.17 1860.81 1347.06 1882.48 1346.65 1905.55 C 1342.15 1905.27 1339.48 1905.83 1336.04 1903.66 C 1333.07 1895.63 1333.09 1806.59 1332.75 1790.81 C 1330.72 1720.5 1329.27 1650.18 1328.4 1579.86 C 1327.91 1549.53 1326.79 1517.66 1327.06 1487.39 C 1330.68 1484.49 1331.79 1484.62 1333.08 1480.98 C 1332.25 1475.3 1328.58 1474.42 1328.18 1472.01 C 1327.36 1466.92 1329.17 1451.3 1326.39 1447.28 C 1325.38 1415.47 1326.22 1382.43 1325.86 1350.5 L 1322.98 1162.5 L 1321.92 1037.49 C 1321.75 1020.69 1319.93 985.712 1321.93 970.97 z" fill="rgb(115,52,103)" transform="translate(0,0)"></path>
<path d="M 737.744 1060.89 C 745.069 1061.9 755.228 1064.28 761.06 1064.98 L 774.423 1069.07 C 776.633 1074.14 778.408 1078.32 778.626 1083.93 C 779.852 1115.44 778.233 1148.01 777.539 1179.43 L 775.742 1317.29 C 775.492 1328.49 773.963 1357.91 774.72 1367.46 C 762.324 1366.55 744.694 1366.89 731.908 1366.77 C 732.814 1340.94 732.577 1316.39 733.123 1290.8 L 737.744 1060.89 z" fill="rgb(115,52,103)" transform="translate(0,0)"></path>
<path d="M 834.222 1561.88 C 836.27 1436.44 835.037 1310.09 838.629 1184.89 C 839.098 1163.48 839.284 1142.07 839.188 1120.65 C 839.187 1113.22 838.461 1096.7 839.482 1090.71 C 842.312 1089.26 847.948 1089.4 850.712 1091 C 851.927 1099.18 851.099 1125.1 851.071 1134.97 C 850.992 1169.9 850.717 1204.83 850.246 1239.75 C 849.917 1347.53 848.807 1455.31 846.916 1563.07 C 847.43 1610.41 844.663 1659.72 844.89 1707.73 C 844.674 1716.02 844.531 1757.27 843.477 1761.43 C 840.059 1762.69 836.708 1764.31 833.383 1763.02 C 832.167 1754.92 832.98 1718.01 833.264 1708.34 C 832.42 1696.29 833.065 1674.47 833.113 1661.71 C 833.261 1628.43 833.63 1595.15 834.222 1561.88 z" fill="rgb(115,52,103)" transform="translate(0,0)"></path>
<path d="M 1197.86 1255.18 C 1196.5 1203.05 1197.8 1150.67 1196.6 1098.51 C 1196.57 1097.01 1198.17 1094.54 1198.91 1093.3 L 1196.97 1090.37 C 1200.69 1089.39 1198.85 1089.42 1202.69 1090.48 C 1208.8 1096.37 1205.72 1118.07 1205.83 1127.13 L 1207.17 1207.5 C 1207.28 1215.89 1208.41 1255.55 1207.53 1260.73 C 1208.27 1290.79 1206.95 1322.37 1207.39 1352.71 L 1211.4 1611.69 L 1211.55 1714.21 C 1211.65 1730.4 1212.29 1747.74 1211.68 1763.92 C 1211.58 1766.6 1211.41 1766.17 1209.81 1767.41 C 1206.61 1767.6 1206.26 1768.18 1203.93 1766.86 C 1202.26 1752.14 1202.97 1717.26 1202.78 1702 L 1201.14 1590.9 L 1197.86 1255.18 z" fill="rgb(115,52,103)" transform="translate(0,0)"></path>
<path d="M 1270.73 1521.44 C 1281.64 1520.52 1307.74 1521.17 1319.94 1521.04 C 1319.66 1562.38 1320.76 1607.73 1321.31 1649.39 C 1305.36 1649.96 1288.32 1649.86 1272.29 1650.03 C 1273.18 1636.17 1272.03 1618.78 1271.92 1604.71 C 1271.73 1577.64 1269.96 1548.31 1270.73 1521.44 z" fill="rgb(33,80,131)" transform="translate(0,0)"></path>
<path d="M 969.968 1520.96 C 985.664 1520.81 1001.36 1520.83 1017.06 1521 C 1016.3 1564.68 1016.27 1608.36 1016.98 1652.04 C 1001.91 1652.39 986.069 1652.21 970.936 1652.29 C 970.94 1624.05 969.846 1596.01 969.919 1567.73 C 969.959 1551.85 969.044 1537.06 969.968 1520.96 z" fill="rgb(33,80,131)" transform="translate(0,0)"></path>
<path d="M 1031.51 1520.02 L 1077.18 1519.88 C 1076.32 1562.83 1077.55 1607.97 1076.89 1651.77 C 1071.34 1653.1 1038.82 1652.41 1030.94 1652.33 C 1030.97 1610.67 1029.98 1561.28 1031.51 1520.02 z" fill="rgb(33,80,131)" transform="translate(0,0)"></path>
<path d="M 728.305 1520.68 C 742.697 1523.02 761.233 1519.7 770.973 1522.45 C 774.188 1527.08 770.933 1636.14 770.663 1649.33 C 758.487 1650.18 737.863 1650.22 725.998 1649.02 C 725.383 1638.14 725.921 1626.23 726.25 1615.36 C 727.205 1583.8 726.689 1552.22 728.305 1520.68 z" fill="rgb(42,93,141)" transform="translate(0,0)"></path>
<path d="M 22.2477 1524.5 C 29.0942 1524.76 38.8899 1524.32 45.9691 1524.23 C 45.2613 1543.87 44.9718 1563.53 45.1007 1583.18 C 45.0682 1593.53 45.5935 1613.19 43.5157 1622.75 C 34.7126 1622.47 31.6403 1621.42 23.7709 1625.19 L 22.6428 1625.74 C 14.6726 1631.27 11.17 1627.34 7.58147 1636.49 L 6.37794 1636 C 5.10672 1626.1 5.59286 1606.91 5.6497 1596.42 C 5.98741 1572.67 6.06812 1548.91 5.89182 1525.15 L 22.2477 1524.5 z" fill="rgb(42,93,141)" transform="translate(0,0)"></path>
<path d="M 2005.89 1525.46 C 2015.69 1524.93 2029.09 1525.3 2039.19 1525.32 C 2041.2 1557.53 2041.73 1589.84 2043.44 1622.08 C 2043.76 1628.06 2044.09 1634.04 2043.79 1640.04 L 2041.92 1641.22 C 2030.3 1638.8 2023.21 1639.45 2011.71 1641.28 C 2009.08 1607.56 2006.63 1559.13 2005.89 1525.46 z" fill="rgb(42,93,141)" transform="translate(0,0)"></path>
<path d="M 1908.99 1367.17 C 1911.82 1368.37 1916.17 1369.46 1919.26 1370.34 C 1920.68 1381.49 1920.7 1401 1920.88 1412.48 L 1921.82 1488.87 C 1923.36 1560.19 1926.72 1634.88 1925.13 1705.85 C 1923.77 1709.9 1924.63 1709.32 1921.8 1711.61 L 1919.72 1711.05 C 1914.89 1704.16 1915.03 1670.81 1914.86 1660.5 C 1913.24 1563.24 1909.02 1464.28 1908.99 1367.17 z" fill="rgb(150,109,144)" transform="translate(0,0)"></path>
<path d="M 1965.18 1525.56 C 1976.1 1525.01 1984.83 1525.07 1995.7 1525.29 C 1996.12 1550.16 1997.88 1575.66 1998.83 1600.54 C 1999.25 1611.46 2002 1632.94 2000.73 1642.9 C 1990.11 1640.01 1980.79 1640.75 1969.95 1641.69 C 1969.76 1602.85 1966.72 1564.25 1965.18 1525.56 z" fill="rgb(42,93,141)" transform="translate(0,0)"></path>
<path d="M 1273.21 1700.11 L 1321.9 1699.56 C 1322.76 1725.54 1323.24 1751.54 1323.33 1777.54 C 1306.71 1769.7 1291.04 1768.92 1273.04 1766.61 C 1274.44 1748.98 1273.22 1719.08 1273.21 1700.11 z" fill="rgb(115,52,103)" transform="translate(0,0)"></path>
<path d="M 724.809 1699.31 C 739.617 1698.86 754.432 1698.66 769.247 1698.7 C 768.927 1719.62 769.123 1746.3 767.652 1766.78 C 765.661 1768.49 763.071 1768.22 759.906 1768.65 C 749.106 1769.38 734.031 1773 722.364 1774.51 L 724.809 1699.31 z" fill="rgb(115,52,103)" transform="translate(0,0)"></path>
<path d="M 54.393 1525.11 L 87.0442 1524.87 C 87.2047 1549.71 87.7974 1602.09 86.0719 1628.97 C 85.3631 1629.91 84.6543 1630.85 83.9456 1631.78 C 79.9084 1624.8 78.8413 1623.69 72.6396 1618.63 C 65.9724 1617.94 61.9477 1618.39 55.2739 1618.9 C 52.3155 1610.3 55.3289 1541.17 54.393 1525.11 z" fill="rgb(42,93,141)" transform="translate(0,0)"></path>
<path d="M 1434.93 1487.96 C 1462.58 1487.39 1490.23 1487.02 1517.88 1486.84 C 1529.47 1486.77 1549.17 1486.14 1560.12 1487.49 C 1559.28 1497.09 1558.85 1500.89 1560.45 1510.56 C 1553.87 1511.77 1532.67 1511.67 1524.97 1511.67 C 1494.86 1511.68 1465.17 1511.26 1435.02 1511.8 L 1434.93 1487.96 z" fill="rgb(42,93,141)" transform="translate(0,0)"></path>
<path d="M 1744.42 1486.59 C 1747.74 1486.46 1751.57 1486.6 1754.93 1486.65 C 1755.44 1492.45 1757.08 1506.12 1755.2 1511.38 C 1744.27 1512.26 1734.72 1511.34 1724.14 1511.62 C 1705.4 1512.11 1686.4 1511.63 1667.77 1512.17 C 1662.98 1513.23 1656.06 1512.61 1650.97 1512.43 C 1650.34 1504.44 1650.28 1495.74 1650.07 1487.67 C 1678.06 1485.8 1715.11 1487.61 1744.42 1486.59 z" fill="rgb(42,93,141)" transform="translate(0,0)"></path>
<path d="M 502.414 1492.49 C 538.958 1492 575.505 1491.86 612.05 1492.09 L 611.615 1511.77 C 604.451 1511.94 596.945 1511.85 589.75 1511.87 C 581.614 1510.71 564.013 1512.07 555.015 1511.85 C 530.911 1511.26 507.121 1511.23 483.009 1511.78 L 483.129 1492.99 L 502.414 1492.49 z" fill="rgb(42,93,141)" transform="translate(0,0)"></path>
<path d="M 283.343 1492.03 C 295.874 1493.7 318.812 1493.15 332.054 1493.09 C 354.164 1492.99 378.341 1493.5 400.206 1492.14 C 400.266 1497.94 400.637 1506.5 399.703 1511.97 L 398.029 1512.83 C 360.303 1512.98 319.221 1515.34 282.191 1514.74 C 281.931 1507.15 282.317 1499.56 283.343 1492.03 z" fill="rgb(42,93,141)" transform="translate(0,0)"></path>
<path d="M 969.992 1490.22 C 1003.44 1489.55 1043.5 1490.92 1077.72 1491.01 C 1077.18 1496.94 1077.51 1506.77 1077.5 1513.07 C 1041.87 1512.91 1005.66 1513.59 969.941 1513.74 C 969.787 1506.04 969.952 1497.96 969.992 1490.22 z" fill="rgb(33,80,131)" transform="translate(0,0)"></path>
<path d="M 122.843 1486.6 L 129.569 1488.32 C 132.383 1486.54 131.535 1486.71 132.744 1482.4 C 132.106 1532.19 128.907 1581.67 130.727 1631.51 C 131.163 1643.45 129.087 1656.65 129.165 1668.69 C 128.72 1681.83 129.309 1696.81 126.105 1709.37 L 124.663 1710.01 C 122.168 1706.74 122.063 1700.21 122.022 1696.12 C 121.312 1626.5 121.278 1556.18 122.843 1486.6 z" fill="rgb(150,109,144)" transform="translate(0,0)"></path>
<path d="M 141.445 1526.04 C 147.47 1525.99 150.408 1526.35 156.233 1527.12 C 156.241 1542.4 157.103 1636.94 153.491 1642.14 C 148.83 1645.24 147.175 1646.85 141.599 1645.3 C 141.167 1644.68 140.736 1644.06 140.304 1643.44 C 140.136 1609.23 141.271 1558.7 141.445 1526.04 z" fill="rgb(42,93,141)" transform="translate(0,0)"></path>
<path d="M 1656.74 860.285 L 1659.92 860.471 L 1660.46 862.113 C 1658.86 865.074 1656.85 867.673 1653.41 868.535 C 1637.87 872.425 1621.75 874.324 1606.22 878.25 C 1548.35 892.876 1489.6 903.799 1431.24 916.339 L 1428.34 916.859 L 1427.44 916.081 C 1429.3 913.135 1430.78 911.509 1433.02 908.903 C 1478.18 899.495 1523.22 889.052 1568.49 879.807 C 1598.02 873.777 1626.56 864.893 1656.74 860.285 z" fill="rgb(115,52,103)" transform="translate(0,0)"></path>
<path d="M 1892.78 1523.81 C 1896.3 1524.29 1899.28 1524.18 1901.78 1526.47 C 1903.06 1532.15 1903.25 1550.25 1903.47 1557.19 C 1904.24 1581.83 1906.48 1611.28 1904.8 1635.81 C 1902.44 1638.56 1900.81 1638.17 1896.53 1639.38 C 1895.77 1640.85 1895.34 1641.48 1894.43 1642.86 C 1890.22 1636.96 1891.89 1538.36 1892.78 1523.81 z" fill="rgb(42,93,141)" transform="translate(0,0)"></path>
<path d="M 124.036 1371.34 L 134.157 1365.93 C 131.995 1403.06 133.352 1444.53 132.744 1482.4 C 131.535 1486.71 132.383 1486.54 129.569 1488.32 L 122.843 1486.6 C 121.569 1453.02 122.594 1405.01 124.036 1371.34 z" fill="rgb(150,109,144)" transform="translate(0,0)"></path>
<path d="M 2004.05 1487.12 C 2017.88 1487.21 2032.28 1487.03 2046.01 1488.2 C 2046.06 1497.3 2045.69 1506.07 2045.33 1515.15 C 2032.32 1515.12 2018.64 1515.61 2005.58 1515.87 L 2004.05 1487.12 z" fill="rgb(42,93,141)" transform="translate(0,0)"></path>
<path d="M 1319.6 1488.62 C 1319.08 1494.71 1319.74 1504.25 1320 1510.64 C 1312.21 1511.69 1280.5 1510.8 1270.83 1510.68 L 1270.88 1488.9 C 1286.72 1489.43 1303.74 1488.93 1319.6 1488.62 z" fill="rgb(42,93,141)" transform="translate(0,0)"></path>
<path d="M 1661.01 811.656 C 1667.14 811.417 1673.27 811.111 1679.39 810.738 C 1676.23 823.484 1670.21 840.822 1665.6 853.384 C 1654.87 851.843 1650.52 850.923 1639.66 852.331 C 1647 836.263 1653.88 826.027 1661.01 811.656 z" fill="rgb(33,80,131)" transform="translate(0,0)"></path>
<path d="M 754.613 1490.58 L 773.52 1489.74 C 773.778 1495.61 773.25 1504.59 773.063 1510.7 L 747.5 1510.93 C 740.824 1511.05 734.674 1510.82 728.01 1510.58 C 728.284 1504.1 728.275 1497.31 728.359 1490.8 L 754.613 1490.58 z" fill="rgb(42,93,141)" transform="translate(0,0)"></path>
<path d="M 853.571 1702.5 C 855.779 1700.85 856.336 1701.05 859.094 1700.99 C 930.151 1699.6 1001.13 1701.09 1072.16 1701 C 1099.44 1700.9 1126.73 1700.99 1154.02 1701.26 C 1160.64 1701.28 1192.3 1700.47 1195.77 1702.54 C 1192.43 1703.93 1190.09 1703.77 1186.44 1703.74 C 1120.65 1703.17 1052.16 1703.4 986.668 1702.99 C 970.859 1702.9 861.322 1704.93 853.571 1702.5 z" fill="rgb(115,52,103)" transform="translate(0,0)"></path>
<path d="M 1963.95 1487.78 C 1973.75 1488.08 1984.06 1487.96 1993.89 1488 C 1993.9 1496.94 1994.14 1506.07 1994.27 1515.02 L 1965.07 1514.99 C 1964.38 1506.13 1964.24 1496.7 1963.95 1487.78 z" fill="rgb(42,93,141)" transform="translate(0,0)"></path>
<path d="M 403.446 870.447 C 398.471 869.971 385.903 869.867 385.166 863.541 C 388.967 860.534 395.325 862.573 399.817 863.412 C 416.055 866.016 497.623 880.944 509.2 886.587 L 507.459 887.244 C 503.245 886.351 503.114 885.505 500.25 887.085 C 502.559 888.911 507.145 889.604 510.235 890.321 L 509.861 891.375 C 499.953 890.308 485.026 885.726 474.859 884.03 C 452.203 880.251 425.692 873.377 403.446 870.447 z" fill="rgb(115,52,103)" transform="translate(0,0)"></path>
<path d="M 8.06473 1492.11 C 20.6907 1491.99 33.3176 1492.03 45.9429 1492.2 L 46.1373 1511.04 C 34.7993 1510.51 19.5859 1511.06 7.97189 1511.18 L 8.06473 1492.11 z" fill="rgb(42,93,141)" transform="translate(0,0)"></path>
<path d="M 373.225 819.826 C 394.638 830.98 398.112 846.719 407.6 851.88 L 406.055 853.468 C 398.968 852.599 377.867 849.795 372.697 846.65 C 372.612 841.177 371.463 822.917 373.225 819.826 z" fill="rgb(115,52,103)" transform="translate(0,0)"></path>
<path d="M 61.0176 1492.5 C 66.1459 1492.39 83.2145 1491.18 85.9511 1493.78 C 86.9191 1498.09 87.6316 1506.5 85.6518 1510.48 L 83.2506 1510.66 C 74.2873 1510.21 61.0647 1513.67 56.0873 1506.35 C 55.5124 1501.12 54.6959 1497.35 57.5221 1493.11 L 61.0176 1492.5 z" fill="rgb(42,93,141)" transform="translate(0,0)"></path>
<path d="M 1491.93 998.312 L 1493.07 999.509 C 1492.66 1002.23 1492.29 1002.4 1490.86 1004.82 C 1483.55 1009.89 1438.42 1018.41 1428.32 1019.37 C 1427.75 1016.67 1427 1014.98 1428.23 1012.6 C 1434.9 1010.22 1447.56 1008.11 1454.93 1006.49 C 1466.89 1003.86 1479.99 1000.39 1491.93 998.312 z" fill="rgb(115,52,103)" transform="translate(0,0)"></path>
<path d="M 144.825 1492.28 L 151.228 1492.02 C 157.416 1495.29 157.591 1505.27 154.842 1510.7 L 152.214 1511.21 C 148.311 1510.67 144.771 1511.26 141.782 1509.67 C 140.121 1504.7 140.456 1495.71 144.825 1492.28 z" fill="rgb(42,93,141)" transform="translate(0,0)"></path>
<path d="M 1899.31 1488.96 C 1900.28 1489.3 1899.59 1488.99 1900.94 1490.51 C 1901.57 1496.72 1903.51 1509.35 1900.74 1515.15 C 1900.19 1516.29 1897.04 1516.79 1895.42 1517.25 C 1894.28 1516.47 1893.87 1515.91 1892.9 1514.91 C 1891.68 1508.66 1890.31 1497.08 1893.69 1491.18 C 1894.42 1489.9 1897.51 1489.47 1899.31 1488.96 z" fill="rgb(33,80,131)" transform="translate(0,0)"></path>
<path d="M 297.075 1326.17 C 303.934 1325.31 321.969 1321.02 325.656 1325.78 L 327.355 1325.25 L 328.83 1322.27 L 331 1321.98 L 332.822 1324.26 L 333.952 1324.12 C 336.892 1323.79 338.234 1323.31 340.822 1324.65 L 340.427 1326.11 C 340.352 1326.14 297.066 1330.56 292.958 1331.11 C 293.227 1327.25 293.852 1327.78 297.075 1326.17 z" fill="rgb(115,52,103)" transform="translate(0,0)"></path>
<path d="M 1290.54 1044.37 L 1312.55 1040.03 C 1312.3 1041.74 1312.29 1044.66 1311.16 1045.35 C 1303.63 1049.97 1292.31 1050.69 1283.53 1053.61 C 1286.27 1049.15 1286.82 1047.86 1290.54 1044.37 z" fill="rgb(115,52,103)" transform="translate(0,0)"></path>
<metadata><c2pa:manifest xmlns:c2pa="http://c2pa.org/manifest">AAAy2Wp1bWIAAAAeanVtZGMycGEAEQAQgAAAqgA4m3EDYzJwYQAAADKzanVtYgAAAEdqdW1kYzJtYQARABCAAACqADibcQN1cm46YzJwYTphNGUyZTM5YS0wMTVkLTQ4NmEtOWQxYS00NjgzZTBhMjNjODQAAAACyGp1bWIAAAApanVtZGMyYXMAEQAQgAAAqgA4m3EDYzJwYS5hc3NlcnRpb25zAAAAASlqdW1iAAAAQWp1bWRjYm9yABEAEIAAAKoAOJtxE2MycGEuYWN0aW9ucy52MgAAAAAYYzJzaC3ZQJjZ3Rd97zOBIJ5z7GoAAADgY2JvcqJnYWN0aW9uc4GkZmFjdGlvbmxjMnBhLmNyZWF0ZWRkd2hlbsB4IDIwMjYtMDctMjZUMDE6MDg6MzEuMDg5ODQxKzAwOjAwbXNvZnR3YXJlQWdlbnShZG5hbWVuZmFsLWFpL3JlY3JhZnRxZGlnaXRhbFNvdXJjZVR5cGV4Rmh0dHA6Ly9jdi5pcHRjLm9yZy9uZXdzY29kZXMvZGlnaXRhbHNvdXJjZXR5cGUvdHJhaW5lZEFsZ29yaXRobWljTWVkaWFyYWxsQWN0aW9uc0luY2x1ZGVk9QAAAKlqdW1iAAAAPWp1bWRjYm9yABEAEIAAAKoAOJtxE2FpLmZhbC5pbmZvAAAAABhjMnNoN9JR7Y1fOB5P1Nq+wLT95gAAAGRjYm9yomhlbmRwb2ludHgfZmFsLWFpL3JlY3JhZnQvdjMvdGV4dC10by1pbWFnZWpyZXF1ZXN0X2lkeCQwMTlmOWJmNy00MmE5LTdlNjMtODlhYS01MzFiM2M4ZTFjZDEAAADFanVtYgAAAEBqdW1kY2JvcgARABCAAACqADibcRNjMnBhLmhhc2guZGF0YQAAAAAYYzJzaOL7TxaAPh67TBKu7yfStbwAAAB9Y2JvcqVqZXhjbHVzaW9uc4GiZXN0YXJ0GW8RZmxlbmd0aBlDzGRuYW1lbmp1bWJmIG1hbmlmZXN0Y2FsZ2ZzaGEyNTZkaGFzaFggga/wVP1uZFuPhfOHO0RmsQ4OXU7MFq47cO5e+fLfdttjcGFkSQAAAAAAAAAAAAAAAkpqdW1iAAAAJ2p1bWRjMmNsABEAEIAAAKoAOJtxA2MycGEuY2xhaW0udjIAAAACG2Nib3Kmamluc3RhbmNlSUR4LHhtcDppaWQ6NmQ3OTI3OGYtNjY5My00OWUxLWI3MjktNzg5NWFlZGJjNDU1dGNsYWltX2dlbmVyYXRvcl9pbmZvomRuYW1lbmZhbC1haS9yZWNyYWZ0d29yZy5jb250ZW50YXV0aC5jMnBhX3JzZjAuNzkuMGlzaWduYXR1cmV4TXNlbGYjanVtYmY9L2MycGEvdXJuOmMycGE6YTRlMmUzOWEtMDE1ZC00ODZhLTlkMWEtNDY4M2UwYTIzYzg0L2MycGEuc2lnbmF0dXJlcmNyZWF0ZWRfYXNzZXJ0aW9uc4GiY3VybHgpc2VsZiNqdW1iZj1jMnBhLmFzc2VydGlvbnMvYzJwYS5oYXNoLmRhdGFkaGFzaFggXw4FokeiokAZttPip7U9nludiNCqRn2O8gtheM+jTpBzZ2F0aGVyZWRfYXNzZXJ0aW9uc4KiY3VybHgqc2VsZiNqdW1iZj1jMnBhLmFzc2VydGlvbnMvYzJwYS5hY3Rpb25zLnYyZGhhc2hYIFl6eCW6bAaDWsYEZu1FBLNpscQqkDz1FxFO250Hmd+momN1cmx4JnNlbGYjanVtYmY9YzJwYS5hc3NlcnRpb25zL2FpLmZhbC5pbmZvZGhhc2hYIMKQ5ABkI2JTzP5lhRNs+MW2ibuzdWxCrzfr+lfhiaj+Y2FsZ2ZzaGEyNTYAAC1SanVtYgAAAChqdW1kYzJjcwARABCAAACqADibcQNjMnBhLnNpZ25hdHVyZQAAAC0iY2JvctKEWQQvogEmGCGCWQILMIICBzCCAa6gAwIBAgIUCZxcSk4qEuZBcQpy82kGwsZ5ZYowCgYIKoZIzj0EAwIwVjElMCMGA1UECgwcZmFsIC0gRmVhdHVyZXMgJiBMYWJlbHMgSW5jLjEtMCsGA1UEAwwkZmFsIC0gRmVhdHVyZXMgJiBMYWJlbHMgSW5jLiBSb290IENBMB4XDTI2MDYxMDA3MDkxNFoXDTI5MDYwOTA3MDkxNFowODElMCMGA1UECgwcZmFsIC0gRmVhdHVyZXMgJiBMYWJlbHMgSW5jLjEPMA0GA1UEAwwGZmFsLmFpMFkwEwYHKoZIzj0CAQYIKoZIzj0DAQcDQgAElggEcFu8Yx5AmpuflHKeWxLTY1t3Susd42JZe+ANrArQioypS1AZ68nAK+9aZpD93G9MIC6XR/iUxinT9bwwPqN4MHYwDAYDVR0TAQH/BAIwADAOBgNVHQ8BAf8EBAMCBsAwFgYDVR0lAQH/BAwwCgYIKwYBBQUHAwQwHQYDVR0OBBYEFMHEIY9bWCVgCjgaYTDlnZzR7ks+MB8GA1UdIwQYMBaAFLVlm2sfw/ei3L6pdiHHWld6Rn1FMAoGCCqGSM49BAMCA0cAMEQCIF8YjqcQihp3nfyUCqnj5m+YH/34ysbX8bEGjWGwHUdQAiAK0J+9gDELN15EYE+RhxOw6KR6OqVLd3kmqjlV42UGMVkCGDCCAhQwggG6oAMCAQICFCD6fgJksd/RBusIDUpbhzHiFgR5MAoGCCqGSM49BAMCMFYxJTAjBgNVBAoMHGZhbCAtIEZlYXR1cmVzICYgTGFiZWxzIEluYy4xLTArBgNVBAMMJGZhbCAtIEZlYXR1cmVzICYgTGFiZWxzIEluYy4gUm9vdCBDQTAeFw0yNjA2MTAwNzA5MTRaFw0yOTA2MDkwNzA5MTRaMFYxJTAjBgNVBAoMHGZhbCAtIEZlYXR1cmVzICYgTGFiZWxzIEluYy4xLTArBgNVBAMMJGZhbCAtIEZlYXR1cmVzICYgTGFiZWxzIEluYy4gUm9vdCBDQTBZMBMGByqGSM49AgEGCCqGSM49AwEHA0IABHpXaLoFh8SPGq/R8LDjkpcapWDINKn9d0+XOz2ZUj+nilTiNDxnRPJBMnKtwe5NRTvbasy9yuUTMAYk7tzb24yjZjBkMBIGA1UdEwEB/wQIMAYBAf8CAQAwDgYDVR0PAQH/BAQDAgGGMB0GA1UdDgQWBBS1ZZtrH8P3oty+qXYhx1pXekZ9RTAfBgNVHSMEGDAWgBS1ZZtrH8P3oty+qXYhx1pXekZ9RTAKBggqhkjOPQQDAgNIADBFAiEAlcwaER6TXBRnqOrJx4jOq2qxEXfssqDAbhesohUxypMCIBJOi/vTyPBAl3nQZTPdPlvqafbFnty9xZCfBLSwyJDuoWNwYWRZKJsAAAAAAAAAAAAAAAAAAAAAAAAAAAAAAAAAAAAAAAAAAAAAAAAAAAAAAAAAAAAAAAAAAAAAAAAAAAAAAAAAAAAAAAAAAAAAAAAAAAAAAAAAAAAAAAAAAAAAAAAAAAAAAAAAAAAAAAAAAAAAAAAAAAAAAAAAAAAAAAAAAAAAAAAAAAAAAAAAAAAAAAAAAAAAAAAAAAAAAAAAAAAAAAAAAAAAAAAAAAAAAAAAAAAAAAAAAAAAAAAAAAAAAAAAAAAAAAAAAAAAAAAAAAAAAAAAAAAAAAAAAAAAAAAAAAAAAAAAAAAAAAAAAAAAAAAAAAAAAAAAAAAAAAAAAAAAAAAAAAAAAAAAAAAAAAAAAAAAAAAAAAAAAAAAAAAAAAAAAAAAAAAAAAAAAAAAAAAAAAAAAAAAAAAAAAAAAAAAAAAAAAAAAAAAAAAAAAAAAAAAAAAAAAAAAAAAAAAAAAAAAAAAAAAAAAAAAAAAAAAAAAAAAAAAAAAAAAAAAAAAAAAAAAAAAAAAAAAAAAAAAAAAAAAAAAAAAAAAAAAAAAAAAAAAAAAAAAAAAAAAAAAAAAAAAAAAAAAAAAAAAAAAAAAAAAAAAAAAAAAAAAAAAAAAAAAAAAAAAAAAAAAAAAAAAAAAAAAAAAAAAAAAAAAAAAAAAAAAAAAAAAAAAAAAAAAAAAAAAAAAAAAAAAAAAAAAAAAAAAAAAAAAAAAAAAAAAAAAAAAAAAAAAAAAAAAAAAAAAAAAAAAAAAAAAAAAAAAAAAAAAAAAAAAAAAAAAAAAAAAAAAAAAAAAAAAAAAAAAAAAAAAAAAAAAAAAAAAAAAAAAAAAAAAAAAAAAAAAAAAAAAAAAAAAAAAAAAAAAAAAAAAAAAAAAAAAAAAAAAAAAAAAAAAAAAAAAAAAAAAAAAAAAAAAAAAAAAAAAAAAAAAAAAAAAAAAAAAAAAAAAAAAAAAAAAAAAAAAAAAAAAAAAAAAAAAAAAAAAAAAAAAAAAAAAAAAAAAAAAAAAAAAAAAAAAAAAAAAAAAAAAAAAAAAAAAAAAAAAAAAAAAAAAAAAAAAAAAAAAAAAAAAAAAAAAAAAAAAAAAAAAAAAAAAAAAAAAAAAAAAAAAAAAAAAAAAAAAAAAAAAAAAAAAAAAAAAAAAAAAAAAAAAAAAAAAAAAAAAAAAAAAAAAAAAAAAAAAAAAAAAAAAAAAAAAAAAAAAAAAAAAAAAAAAAAAAAAAAAAAAAAAAAAAAAAAAAAAAAAAAAAAAAAAAAAAAAAAAAAAAAAAAAAAAAAAAAAAAAAAAAAAAAAAAAAAAAAAAAAAAAAAAAAAAAAAAAAAAAAAAAAAAAAAAAAAAAAAAAAAAAAAAAAAAAAAAAAAAAAAAAAAAAAAAAAAAAAAAAAAAAAAAAAAAAAAAAAAAAAAAAAAAAAAAAAAAAAAAAAAAAAAAAAAAAAAAAAAAAAAAAAAAAAAAAAAAAAAAAAAAAAAAAAAAAAAAAAAAAAAAAAAAAAAAAAAAAAAAAAAAAAAAAAAAAAAAAAAAAAAAAAAAAAAAAAAAAAAAAAAAAAAAAAAAAAAAAAAAAAAAAAAAAAAAAAAAAAAAAAAAAAAAAAAAAAAAAAAAAAAAAAAAAAAAAAAAAAAAAAAAAAAAAAAAAAAAAAAAAAAAAAAAAAAAAAAAAAAAAAAAAAAAAAAAAAAAAAAAAAAAAAAAAAAAAAAAAAAAAAAAAAAAAAAAAAAAAAAAAAAAAAAAAAAAAAAAAAAAAAAAAAAAAAAAAAAAAAAAAAAAAAAAAAAAAAAAAAAAAAAAAAAAAAAAAAAAAAAAAAAAAAAAAAAAAAAAAAAAAAAAAAAAAAAAAAAAAAAAAAAAAAAAAAAAAAAAAAAAAAAAAAAAAAAAAAAAAAAAAAAAAAAAAAAAAAAAAAAAAAAAAAAAAAAAAAAAAAAAAAAAAAAAAAAAAAAAAAAAAAAAAAAAAAAAAAAAAAAAAAAAAAAAAAAAAAAAAAAAAAAAAAAAAAAAAAAAAAAAAAAAAAAAAAAAAAAAAAAAAAAAAAAAAAAAAAAAAAAAAAAAAAAAAAAAAAAAAAAAAAAAAAAAAAAAAAAAAAAAAAAAAAAAAAAAAAAAAAAAAAAAAAAAAAAAAAAAAAAAAAAAAAAAAAAAAAAAAAAAAAAAAAAAAAAAAAAAAAAAAAAAAAAAAAAAAAAAAAAAAAAAAAAAAAAAAAAAAAAAAAAAAAAAAAAAAAAAAAAAAAAAAAAAAAAAAAAAAAAAAAAAAAAAAAAAAAAAAAAAAAAAAAAAAAAAAAAAAAAAAAAAAAAAAAAAAAAAAAAAAAAAAAAAAAAAAAAAAAAAAAAAAAAAAAAAAAAAAAAAAAAAAAAAAAAAAAAAAAAAAAAAAAAAAAAAAAAAAAAAAAAAAAAAAAAAAAAAAAAAAAAAAAAAAAAAAAAAAAAAAAAAAAAAAAAAAAAAAAAAAAAAAAAAAAAAAAAAAAAAAAAAAAAAAAAAAAAAAAAAAAAAAAAAAAAAAAAAAAAAAAAAAAAAAAAAAAAAAAAAAAAAAAAAAAAAAAAAAAAAAAAAAAAAAAAAAAAAAAAAAAAAAAAAAAAAAAAAAAAAAAAAAAAAAAAAAAAAAAAAAAAAAAAAAAAAAAAAAAAAAAAAAAAAAAAAAAAAAAAAAAAAAAAAAAAAAAAAAAAAAAAAAAAAAAAAAAAAAAAAAAAAAAAAAAAAAAAAAAAAAAAAAAAAAAAAAAAAAAAAAAAAAAAAAAAAAAAAAAAAAAAAAAAAAAAAAAAAAAAAAAAAAAAAAAAAAAAAAAAAAAAAAAAAAAAAAAAAAAAAAAAAAAAAAAAAAAAAAAAAAAAAAAAAAAAAAAAAAAAAAAAAAAAAAAAAAAAAAAAAAAAAAAAAAAAAAAAAAAAAAAAAAAAAAAAAAAAAAAAAAAAAAAAAAAAAAAAAAAAAAAAAAAAAAAAAAAAAAAAAAAAAAAAAAAAAAAAAAAAAAAAAAAAAAAAAAAAAAAAAAAAAAAAAAAAAAAAAAAAAAAAAAAAAAAAAAAAAAAAAAAAAAAAAAAAAAAAAAAAAAAAAAAAAAAAAAAAAAAAAAAAAAAAAAAAAAAAAAAAAAAAAAAAAAAAAAAAAAAAAAAAAAAAAAAAAAAAAAAAAAAAAAAAAAAAAAAAAAAAAAAAAAAAAAAAAAAAAAAAAAAAAAAAAAAAAAAAAAAAAAAAAAAAAAAAAAAAAAAAAAAAAAAAAAAAAAAAAAAAAAAAAAAAAAAAAAAAAAAAAAAAAAAAAAAAAAAAAAAAAAAAAAAAAAAAAAAAAAAAAAAAAAAAAAAAAAAAAAAAAAAAAAAAAAAAAAAAAAAAAAAAAAAAAAAAAAAAAAAAAAAAAAAAAAAAAAAAAAAAAAAAAAAAAAAAAAAAAAAAAAAAAAAAAAAAAAAAAAAAAAAAAAAAAAAAAAAAAAAAAAAAAAAAAAAAAAAAAAAAAAAAAAAAAAAAAAAAAAAAAAAAAAAAAAAAAAAAAAAAAAAAAAAAAAAAAAAAAAAAAAAAAAAAAAAAAAAAAAAAAAAAAAAAAAAAAAAAAAAAAAAAAAAAAAAAAAAAAAAAAAAAAAAAAAAAAAAAAAAAAAAAAAAAAAAAAAAAAAAAAAAAAAAAAAAAAAAAAAAAAAAAAAAAAAAAAAAAAAAAAAAAAAAAAAAAAAAAAAAAAAAAAAAAAAAAAAAAAAAAAAAAAAAAAAAAAAAAAAAAAAAAAAAAAAAAAAAAAAAAAAAAAAAAAAAAAAAAAAAAAAAAAAAAAAAAAAAAAAAAAAAAAAAAAAAAAAAAAAAAAAAAAAAAAAAAAAAAAAAAAAAAAAAAAAAAAAAAAAAAAAAAAAAAAAAAAAAAAAAAAAAAAAAAAAAAAAAAAAAAAAAAAAAAAAAAAAAAAAAAAAAAAAAAAAAAAAAAAAAAAAAAAAAAAAAAAAAAAAAAAAAAAAAAAAAAAAAAAAAAAAAAAAAAAAAAAAAAAAAAAAAAAAAAAAAAAAAAAAAAAAAAAAAAAAAAAAAAAAAAAAAAAAAAAAAAAAAAAAAAAAAAAAAAAAAAAAAAAAAAAAAAAAAAAAAAAAAAAAAAAAAAAAAAAAAAAAAAAAAAAAAAAAAAAAAAAAAAAAAAAAAAAAAAAAAAAAAAAAAAAAAAAAAAAAAAAAAAAAAAAAAAAAAAAAAAAAAAAAAAAAAAAAAAAAAAAAAAAAAAAAAAAAAAAAAAAAAAAAAAAAAAAAAAAAAAAAAAAAAAAAAAAAAAAAAAAAAAAAAAAAAAAAAAAAAAAAAAAAAAAAAAAAAAAAAAAAAAAAAAAAAAAAAAAAAAAAAAAAAAAAAAAAAAAAAAAAAAAAAAAAAAAAAAAAAAAAAAAAAAAAAAAAAAAAAAAAAAAAAAAAAAAAAAAAAAAAAAAAAAAAAAAAAAAAAAAAAAAAAAAAAAAAAAAAAAAAAAAAAAAAAAAAAAAAAAAAAAAAAAAAAAAAAAAAAAAAAAAAAAAAAAAAAAAAAAAAAAAAAAAAAAAAAAAAAAAAAAAAAAAAAAAAAAAAAAAAAAAAAAAAAAAAAAAAAAAAAAAAAAAAAAAAAAAAAAAAAAAAAAAAAAAAAAAAAAAAAAAAAAAAAAAAAAAAAAAAAAAAAAAAAAAAAAAAAAAAAAAAAAAAAAAAAAAAAAAAAAAAAAAAAAAAAAAAAAAAAAAAAAAAAAAAAAAAAAAAAAAAAAAAAAAAAAAAAAAAAAAAAAAAAAAAAAAAAAAAAAAAAAAAAAAAAAAAAAAAAAAAAAAAAAAAAAAAAAAAAAAAAAAAAAAAAAAAAAAAAAAAAAAAAAAAAAAAAAAAAAAAAAAAAAAAAAAAAAAAAAAAAAAAAAAAAAAAAAAAAAAAAAAAAAAAAAAAAAAAAAAAAAAAAAAAAAAAAAAAAAAAAAAAAAAAAAAAAAAAAAAAAAAAAAAAAAAAAAAAAAAAAAAAAAAAAAAAAAAAAAAAAAAAAAAAAAAAAAAAAAAAAAAAAAAAAAAAAAAAAAAAAAAAAAAAAAAAAAAAAAAAAAAAAAAAAAAAAAAAAAAAAAAAAAAAAAAAAAAAAAAAAAAAAAAAAAAAAAAAAAAAAAAAAAAAAAAAAAAAAAAAAAAAAAAAAAAAAAAAAAAAAAAAAAAAAAAAAAAAAAAAAAAAAAAAAAAAAAAAAAAAAAAAAAAAAAAAAAAAAAAAAAAAAAAAAAAAAAAAAAAAAAAAAAAAAAAAAAAAAAAAAAAAAAAAAAAAAAAAAAAAAAAAAAAAAAAAAAAAAAAAAAAAAAAAAAAAAAAAAAAAAAAAAAAAAAAAAAAAAAAAAAAAAAAAAAAAAAAAAAAAAAAAAAAAAAAAAAAAAAAAAAAAAAAAAAAAAAAAAAAAAAAAAAAAAAAAAAAAAAAAAAAAAAAAAAAAAAAAAAAAAAAAAAAAAAAAAAAAAAAAAAAAAAAAAAAAAAAAAAAAAAAAAAAAAAAAAAAAAAAAAAAAAAAAAAAAAAAAAAAAAAAAAAAAAAAAAAAAAAAAAAAAAAAAAAAAAAAAAAAAAAAAAAAAAAAAAAAAAAAAAAAAAAAAAAAAAAAAAAAAAAAAAAAAAAAAAAAAAAAAAAAAAAAAAAAAAAAAAAAAAAAAAAAAAAAAAAAAAAAAAAAAAAAAAAAAAAAAAAAAAAAAAAAAAAAAAAAAAAAAAAAAAAAAAAAAAAAAAAAAAAAAAAAAAAAAAAAAAAAAAAAAAAAAAAAAAAAAAAAAAAAAAAAAAAAAAAAAAAAAAAAAAAAAAAAAAAAAAAAAAAAAAAAAAAAAAAAAAAAAAAAAAAAAAAAAAAAAAAAAAAAAAAAAAAAAAAAAAAAAAAAAAAAAAAAAAAAAAAAAAAAAAAAAAAAAAAAAAAAAAAAAAAAAAAAAAAAAAAAAAAAAAAAAAAAAAAAAAAAAAAAAAAAAAAAAAAAAAAAAAAAAAAAAAAAAAAAAAAAAAAAAAAAAAAAAAAAAAAAAAAAAAAAAAAAAAAAAAAAAAAAAAAAAAAAAAAAAAAAAAAAAAAAAAAAAAAAAAAAAAAAAAAAAAAAAAAAAAAAAAAAAAAAAAAAAAAAAAAAAAAAAAAAAAAAAAAAAAAAAAAAAAAAAAAAAAAAAAAAAAAAAAAAAAAAAAAAAAAAAAAAAAAAAAAAAAAAAAAAAAAAAAAAAAAAAAAAAAAAAAAAAAAAAAAAAAAAAAAAAAAAAAAAAAAAAAAAAAAAAAAAAAAAAAAAAAAAAAAAAAAAAAAAAAAAAAAAAAAAAAAAAAAAAAAAAAAAAAAAAAAAAAAAAAAAAAAAAAAAAAAAAAAAAAAAAAAAAAAAAAAAAAAAAAAAAAAAAAAAAAAAAAAAAAAAAAAAAAAAAAAAAAAAAAAAAAAAAAAAAAAAAAAAAAAAAAAAAAAAAAAAAAAAAAAAAAAAAAAAAAAAAAAAAAAAAAAAAAAAAAAAAAAAAAAAAAAAAAAAAAAAAAAAAAAAAAAAAAAAAAAAAAAAAAAAAAAAAAAAAAAAAAAAAAAAAAAAAAAAAAAAAAAAAAAAAAAAAAAAAAAAAAAAAAAAAAAAAAAAAAAAAAAAAAAAAAAAAAAAAAAAAAAAAAAAAAAAAAAAAAAAAAAAAAAAAAAAAAAAAAAAAAAAAAAAAAAAAAAAAAAAAAAAAAAAAAAAAAAAAAAAAAAAAAAAAAAAAAAAAAAAAAAAAAAAAAAAAAAAAAAAAAAAAAAAAAAAAAAAAAAAAAAAAAAAAAAAAAAAAAAAAAAAAAAAAAAAAAAAAAAAAAAAAAAAAAAAAAAAAAAAAAAAAAAAAAAAAAAAAAAAAAAAAAAAAAAAAAAAAAAAAAAAAAAAAAAAAAAAAAAAAAAAAAAAAAAAAAAAAAAAAAAAAAAAAAAAAAAAAAAAAAAAAAAAAAAAAAAAAAAAAAAAAAAAAAAAAAAAAAAAAAAAAAAAAAAAAAAAAAAAAAAAAAAAAAAAAAAAAAAAAAAAAAAAAAAAAAAAAAAAAAAAAAAAAAAAAAAAAAAAAAAAAAAAAAAAAAAAAAAAAAAAAAAAAAAAAAAAAAAAAAAAAAAAAAAAAAAAAAAAAAAAAAAAAAAAAAAAAAAAAAAAAAAAAAAAAAAAAAAAAAAAAAAAAAAAAAAAAAAAAAAAAAAAAAAAAAAAAAAAAAAAAAAAAAAAAAAAAAAAAAAAAAAAAAAAAAAAAAAAAAAAAAAAAAAAAAAAAAAAAAAAAAAAAAAAAAAAAAAAAAAAAAAAAAAAAAAAAAAAAAAAAAAAAAAAAAAAAAAAAAAAAAAAAAAAAAAAAAAAAAAAAAAAAAAAAAAAAAAAAAAAAAAAAAAAAAAAAAAAAAAAAAAAAAAAAAAAAAAAAAAAAAAAAAAAAAAAAAAAAAAAAAAAAAAAAAAAAAAAAAAAAAAAAAAAAAAAAAAAAAAAAAAAAAAAAAAAAAAAAAAAAAAAAAAAAAAAAAAAAAAAAAAAAAAAAAAAAAAAAAAAAAAAAAAAAAAAAAAAAAAAAAAAAAAAAAAAAAAAAAAAAAAAAAAAAAAAAAAAAAAAAAAAAAAAAAAAAAAAAAAAAAAAAAAAAAAAAAAAAAAAAAAAAAAAAAAAAAAAAAAAAAAAAAAAAAAAAAAAAAAAAAAAAAAAAAAAAAAAAAAAAAAAAAAAAAAAAAAAAAAAAAAAAAAAAAAAAAAAAAAAAAAAAAAAAAAAAAAAAAAAAAAAAAAAAAAAAAAAAAAAAAAAAAAAAAAAAAAAAAAAAAAAAAAAAAAAAAAAAAAAAAAAAAAAAAAAAAAAAAAAAAAAAAAAAAAAAAAAAAAAAAAAAAAAAAAAAAAAAAAAAAAAAAAAAAAAAAAAAAAAAAAAAAAAAAAAAAAAAAAAAAAAAAAAAAAAAAAAAAAAAAAAAAAAAAAAAAAAAAAAAAAAAAAAAAAAAAAAAAAAAAAAAAAAAAAAAAAAAAAAAAAAAAAAAAAAAAAAAAAAAAAAAAAAAAAAAAAAAAAAAAAAAAAAAAAAAAAAAAAAAAAAAAAAAAAAAAAAAAAAAAAAAAAAAAAAAAAAAAAAAAAAAAAAAAAAAAAAAAAAAAAAAAAAAAAAAAAAAAAAAAAAAAAAAAAAAAAAAAAAAAAAAAAAAAAAAAAAAAAAAAAAAAAAAAAAAAAAAAAAAAAAAAAAAAAAAAAAAAAAAAAAAAAAAAAAAAAAAAAAAAAAAAAAAAAAAAAAAAAAAAAAAAAAAAAAAAAAAAAAAAAAAAAAAAAAAAAAAAAAAAAAAAAAAAAAAAAAAAAAAAAAAAAAAAAAAAAAAAAAAAAAAAAAAAAAAAAAAAAAAAAAAAAAAAAAAAAAAAAAAAAAAAAAAAAAAAAAAAAAAAAAAAAAAAAAAAAAAAAAAAAAAAAAAAAAAAAAAAAAAAAAAAAAAAAAAAAAAAAAAAAAAAAAAAAAAAAAAAAAAAAAAAAAAAAAAAAAAAAAAAAAAAAAAAAAAAAAAAAAAAAAAAAAAAAAAAAAAAAAAAAAAAAAAAAAAAAAAAAAAAAAAAAAAAAAAAAAAAAAAAAAAAAAAAAAAAAAAAAAAAAAAAAAAAAAAAAAAAAAAAAAAAAAAAAAAAAAAAAAAAAAAAAAAAAAAAAAAAAAAAAAAAAAAAAAAAAAAAAAAAAAAAAAAAAAAAAAAAAAAAAAAAAAAAAAAAAAAAAAAAAAAAAAAAAAAAAAAAAAAAAAAAAAAAAAAAAAAAAAAAAAAAAAAAAAAAAAAAAAAAAAAAAAAAAAAAAAAAAAAAAAAAAAAAAAAAAAAAAAAAAAAAAAAAAAAAAAAAAAAAAAAAAAAAAAAAAAAAAAAAAAAAAAAAAAAAAAAAAAAAAAAAAAAAAAAAAAAAAAAAAAAAAAAAAAAAAAAAAAAAAAAAAAAAAAAAAAAAAAAAAAAAAAAAAAAAAAAAAAAAAAAAAAAAAAAAAAAAAAAAAAAAAAAAAAAAAAAAAAAAAAAAAAAAAAAAAAAAAAAAAAAAAAAAAAAAAAAAAAAAAAAAAAAAAAAAAAAAAAAAAAAAAAAAAAAAAAAAAAAAAAAAAAAAAAAAAAAAAAAAAAAAAAAAAAAAAAAAAAAAAAAAAAAAAAAAAAAAAAAAAAAAAAAAAAAAAAAAAAAAAAAAAAAAAAAAAAAAAAAAAAAAAAAAAAAAAAAAAAAAAAAAAAAAAAAAAAAAAAAAAAAAAAAAAAAAAAAAAAAAAAAAAAAAAAAAAAAAAAAAAAAAAAAAAAAAAAAAAAAAAAAAAAAAAAAAAAAAAAAAAAAAAAAAAAAAAAAAAAAAAAAAAAAAAAAAAAAAAAAAAAAAAAAAAAAAAAAAAAAAAAAAAAAAAAAAAAAAAAAAAAAAAAAAAAAAAAAAAAAAAAAAAAAAAAAAAAAAAAAAAAAAAAAAAAAAAAAAAAAAAAAAAAAAAAAAAAAAAAAAAAAAAAAAAAAAAAAAAAAAAAAAAAAAAAAAAAAAAAAAAAAAAAAAAAAAAAAAAAAAAAAAAAAAAAAAAAAAAAAAAAAAAAAAAAAAAAAAAAAAAAAAAAAAAAAAAAAAAAAAAAAAAAAAAAAAAAAAAAAAAAAAAAAAAAAAAAAAAAAAAAAAAAAAAAAAAAAAAAAAAAAAAAAAAAAAAAAAAAAAAAAAAAAAAAAAAAAAAAAAAAAAAAAAAAAAAAAAAAAAAAAAAAAAAAAAAAAAAAAAAAAAAAAAAAAAAAAAAAAAAAAAAAAAAAAAAAAAAAAAAAAAAAAAAAAAAAAAAAAAAAAAAAAAAAAAAAAAAAAAAAAAAAAAAAAAAAAAAAAAAAAAAAAAAAAAAAAAAAAAAAAAAAAAAAAAAAAAAAAAAAAAAAAAAAAAAAAAAAAAAAAAAAAAAAAAAAAAAAAAAAAAAAAAAAAAAAAAAAAAAAAAAAAAAAAAAAAAAAAAAAAAAAAAAAAAAAAAAAAAAAAAAAAAAAAAAAAAAAAAAAAAAAAAAAAAAAAAAAAAAAAAAAAAAAAAAAAAAAAAAAAAAAAAAAAAAAAAAAAAAAAAAAAAAAAAAAAAAAAAAAAAAAAAAAAAAAAAAAAAAAAAAAAAAAAAAAAAAAAAAAAAAAAAAAAAAAAAAAAAAAAAAAAAAAAAAAAAAAAAAAAAAAAAAAAAAAAAAAAAAAAAAAAAAAAAAAAAAAAAAAAAAAAAAAAAAAAAAAAAAAAAAAAAAAAAAAAAAAAAAAAAAAAAAAAAAAAAAAAAAAAAAAAAAAAAAAAAAAAAAAAAAAAAAAAAAAAAAAAAAAAAAAAAAAAAAAAAAAAAAAAAAAAAAAAAAAAAAAAAAAAAAAAAAAAAAAAAAAAAAAAAAAAAAAAAAAAAAAAAAAAAAAAAAAAAAAAAAAAAAAAAAAAAAAAAAAAAAAAAAAAAAAAAAAAAAAAAAAAAAAAAAAAAAAAAAAAAAAAAAAAAAAAAAAAAAAAAAAAAAAAAAAAAAAAAAAAAAAAAAAAAAAAAAAAAAAAAAAAAAAAAAAAAAAAAAAAAAAAAAAAAAAAAAAAAAAAAAAAAAAAAAAAAAAAAAAAAAAAAAAAAAAAAAAAAAAAAAAAAAAAAAAAAAAAAAAAAAAAAAAAAAAAAAAAAAAAAAAAAAAAAAAAAAAAAAAAAAAAAAAAAAAAAAAAAAAAAAAAAAAAAAAAAAAAAAAAAAAAAAAAAAAAAAAAAAAAAAAAAAAAAAAAAAAAAAAAAAAAAAAAAAAAAAAAAAAAAAAAAAAAAAAAAAAAAAAAAAAAAAAAAAAAAAAAAAAAAAAAAAAAAAAAAAAAAAAAAAAAAAAAAAAAAAAAAAAAAAAAAAAAAAAAAAAAAAAAAAAAAAAAAAAAAAAAAAAAAAAAAAAAAAAAAAAAAAAAAAAAAAAAAAAAAAAAAAAAAAAAAAAAAAAAAAAAAAAAAAAAAAAAAAAAAAAAAAAAAAAAAAAAAAAAAAAAAAAAAAAAAAAAAAAAAAAAAAAAAAAAAAAAAAAAAAAAAAAAAAAAAAAAAAAAAAAAAAAAAAAAAAAAAAAAAAAAAAAAAAAAAAAAAAAAAAAAAAAAAAAAAAAAAAAAAAAAAAAAAAAAAAAAAAAAAAAAAAAAAAAAAAAAAAAAAAAAAAAAAAAAAAAAAAAAAAAAAAAAAAAAAAAAAAAAAAAAAAAAAAAAAAAAAAAAAAAAAAAAAAAAAAAAAAAAAAAAAAAAAAAAAAAAAAAAAAAAAAAAAAAAAAAAAAAAAAAAAAAAAAAAAAAAAAAAAAAAAAAAAAAAAAAAAAAAAAAAAAAAAAAAAAAAAAAAAAAAAAAAAAAAAAAAAAAAAAAAAAAAAAAAAAAAAAAAAAAAAAAAAAAAAAAAAAAAAAAAAAAAAAAAAAAAAAAAAAAAAAAAAAAAAAAAAAAAAAAAAAAAAAAAAAAAAAAAAAAAAAAAAAAAAAAAAAAAAAAAAAAAAAAAAAAAAAAAAAAAAAAAAAAAAAAAAAAAAAAAAAAAAAAAAAAAAAAAAAAAAAAAAAAAAAAAAAAAAAAAAAAAAAAAAAAAAAAAAAAAAAAAAAAAAAAAAAAAAAAAAAAAAAAAAAAAAAAAAAAAAAAAAAAAAAAAAAAAAAAAAAAAAAAAAAAAAAAAAAAAAAAAAAAAAAAAAAAAAAAAAAAAAAAAAAAAAAAAAAAAAAAAAAAAAAAAAAAAAAAAAAAAAAAAAAAAAAAAAAAAAAAAAAAAAAAAAAAAAAAAAAAAAAAAAAAAAAAAAAAAAAAAAAAAAAAAAAAAAAAAAAAAAAAAAAAAAAAAAAAAAAAAAAAAAAAAAAAAAAAAAAAAAAAAAAAAAAAAAAAAAAAAAAAAAAAAAAAAAAAAAAAAAAAAAAAAAAAAAAAAAAAAAAAAAAAAAAAAAAAAAAAAAAAAAAAAAAAAAAAAAAAAAAAAAAAAAAAAAAAAAAAAAAAAAAAAAAAAAAAAAAAAAAAAAAAAAAAAAAAAAAAAAAAAAAAAAAAAAAAAAAAAAAAAAAAAAAAAAAAAAAAAAAAAAAAAAAAAAAAAAAAAAAAAAAAAAAAAAAAAAAAAAAAAAAAAAAAAAAAAAAAAAAAAAAAAAAAAAAAAAAAAAAAAAAAAAAAAAAAAAAAAAAAAAAAAAAAAAAAAAAAAAAAAAAAAAAAAAAAAAAAAAAAAAAAAAAAAAAAAAAAAAAAAAAAAAAAAAAAAAAAAAAAAAAAAAAAAAAAAAAAAAAAAAAAAAAAAAAAAAAAAAAAAAAAAAAAAAAAAAAAAAAAAAAAAAAAAAAAAAAAAAAAAAAAAAAAAAAAAAAAAAAAAAAAAAAAAAAAAAAAAAAAAAAAAAAAAAAAAAAAAAAAAAAAAAAAAAAAAAAAAAAAAAAAAAAAAAAAAAAAAAAAAAAAAAAAAAAAAAAAAAAAAAAAAAAAAAAAAAAAAAAAAAAAAAAAAAAAAAAAAAAAAAAAAAAAAAAAAAAAAAAAAAAAAAAAAAAAAAAAAAAAAAAAAAAAAAAAAAAAAAAAAAAAAAAAAAAAAAAAAAAAAAAAAAAAAAAAAAAAAAAAAAAAAAAAAAAAAAAAAAAAAAAAAAAAAAAAAAAAAAAAAAAAAAAAAAAAAAAAAAAAAAAAAAAAAAAAAAAAAAAAAAAAAAAAAAAAAAAAAAAAAAAAAAAAAAAAAAAAAAAAAAAAAAAAAAAAAAAAAAAAAAAAAAAAAAAAAAAAAAAAAAAAAAAAAAAAAAAAAAAAAAAAAAAAAAAAAAAAAAAAAAAAAAAAAAAAAAAAAAAAAAAAAAAAAAAAAAAAAAAAAAAAAAAAAAAAAAAAAAAAAAAAAAAAAAAAAAAAAAAAAAAAAAAAAAAAAAAAAAAAAAAAAAAAAAAAAAAAAAAAAAAAAAAAAAAAAAAAAAAAAAAAAAAAAAAAAAAAAAAAAAAAAAAAAAAAAAAAAAAAAAAAAAAAAAAAAAAAAAAAAAAAAAAAAAAAAAAAAAAAAAAAAAAAAAAAAAAAAAAAAAAAAAAAAAAAAAAAAAAAAAAAAAAAAAAAAAAAAAAAAAAAAAAAAAAAAAAAAAAAAAAAAAAAAAAAAAAAAAAAAAAAAAAAAAAAAAAAAAAAAAAAAAAAAAAAAAAAAAAAAAAAAAAAAAAAAAAAAAAAAAAAAAAAAAAAAAAAAAAAAAAAAAAAAAAAAAAAAAAAAAAAAAAAAAAAAAAAAAAAAAAAAAAAAAAAAAAAAAAAAAAAAAAAAAAAAAAAAAAAAAAAAAAAAAAAAAAAAAAAAAAAAAAAAAAAAAAAAAAAAAAAAAAAAAAAAAAAAAAAAAAAAAAAAAAAAAAAAAAAAAAAAAAAAAAAAAAAAAAAAAAAAAAAAAAAAAAAAAAAAAAAAAAAAAAAAAAAAAAAAAAAAAAAAAAAAAAAAAAAAAAAAAAAAAAAAAAAAAAAAAAAAAAAAAAAAAAAAAAAAAAAAAAAAAAAAAAAAAAAAAAAAAAAAAAAAAAAAAAAAAAAAAAAAAAAAAAAAAAAAAAAAAAAAAAAAAAAAAAAAAAAAAAAAAAAAAAAAAAAAAAAAAAAAAAAAAAAAAAAAAAAAAAAAAAAAAAAAAAAAAAAAAAAAAAAAAAAAAAAAAAAAAAAAAAAAAAAAAAAAAAAAAAAAAAAAAAAAAAAAAAAAAAAAAAAAAAAAAAAAAAAAAAAAAAAAAAAAAAAAAAAAAAAAAAAAAAAAAAAAAAAAAAAAAAAAAAAAAAAAAAAAAAAAAAAAAAAAAAAAAAAAAAAAAAAAAAAAAAAAAAAAAAAAAAAAAAAAAAAAAAAAAAAAAAAAAAAAAAAAAAAAAAAAAAAAAAAAAAAAAAAAAAAAAAAAAAAAAAAAAAAAAAAAAAAAAAAAAAAAAAAAAAAAAAAAAAAAAAAAAAAAAAAAAAAAAAAAAAAAAAAAAAAAAAAAAAAAAAAAAAAAAAAAAAAAAAAAAAAAAAAAAAAAAAAAAAAAAAAAAAAAAAAAAAAAAAAAAAAAAAAAAAAAAAAAAAAAAAAAAAAAAAAAAAAAAAAAAD2WED+4DK9lKH0fiCySpNk6tHG2hH5PFFJqqptzoJ7H4/Z/hNxBI0w/O5ySoSf0H7etggNXEkyQvl0Hp52NWQRPcQR</c2pa:manifest><recraft-signature>{"signed_by": "recraft", "signature_b64": "2LgyJ72bWTs4dvGMiPZdV0hSuIvIIYpeFd/v19lVEVaVmTgNXRiZzGh+86QKXwCW4K4x48RGRSeQywMK2URnDQ==", "signing_algo": "Ed25519", "generation_timestamp": 1785028110, "identifier": "80eaa8ef-6af8-4036-9b5b-7ab4050ede8d"}</recraft-signature></metadata></svg>